# xmcd
#
# Track frame offsets:
#	150
#	21750
#	43822
#	63478
#	83403
#	102378
#	120135
#	144064
#	158767
#	179089
#	199967
#	220478
#
# Disc length: 2985 seconds
#
# Revision: 0
# Processed by: cddbd v1.5.1PL0 Copyright (c) Steve Scherf et al.
# Submitted via: dBpowerAMP V4.0
#
DISCID=a10ba70c
DTITLE=I Fiò Dla Nebia  - Comunque
DYEAR=1900
DGENRE=
TTITLE0=As fa no par vantas
TTITLE1=Al gir di lenti
TTITLE2=La creazione
TTITLE3=Tranquillo Cremona
TTITLE4=Una ca ai tri re
TTITLE5=Al turines
TTITLE6=Al di dla festa
TTITLE7=La rutonda
TTITLE8=Ma che strano
TTITLE9=Tricche tracche
TTITLE10=Blec en uait
TTITLE11=Comunque
EXTD=
EXTT0=
EXTT1=
EXTT2=
EXTT3=
EXTT4=
EXTT5=
EXTT6=
EXTT7=
EXTT8=
EXTT9=
EXTT10=
EXTT11=
PLAYORDER=
